<svg width="42" height="35" viewBox="0 0 42 35" fill="none" xmlns="http://www.w3.org/2000/svg">
<path fill-rule="evenodd" clip-rule="evenodd" d="M29.7972 29.951C26.6366 33.0728 22.2934 35 17.5 35C7.83502 35 0 27.165 0 17.5C0 7.83502 7.83502 0 17.5 0C27.165 0 35 7.83502 35 17.5C35 17.9342 34.9842 18.3648 34.9531 18.7911C39.1636 19.8257 42 21.7709 42 24C42 27.0527 36.6804 29.573 29.7972 29.951ZM28.6314 29.994C26.4455 31.8679 23.605 33 20.5 33C13.5964 33 8 27.4036 8 20.5C8 13.5964 13.5964 8 20.5 8C26.6756 8 31.8052 12.4784 32.8184 18.3648C31.3161 18.1288 29.6931 18 28 18C20.268 18 14 20.6863 14 24C14 27.3137 20.268 30 28 30C28.2116 30 28.4221 29.998 28.6314 29.994ZM31.3131 26.7752C30.2762 26.9208 29.1612 27 28 27C22.4772 27 18 25.2091 18 23C18 20.7909 22.4772 19 28 19C29.806 19 31.5003 19.1915 32.9627 19.5265C32.9874 19.8478 33 20.1724 33 20.5C33 22.7872 32.3857 24.931 31.3131 26.7752ZM32.4627 26.5806C35.7455 25.9247 38 24.5676 38 23C38 21.8437 36.7734 20.802 34.8124 20.0717C34.4656 22.4266 33.6497 24.6289 32.4627 26.5806Z" fill="#EB246C"/>
</svg>
